# xmcd
#
# Track frame offsets:
# 150
# 20424
# 40753
# 61117
# 81528
# 102153
# 122911
# 143672
# 164516
# 186175
# 210005
# 239266
# 261243
# 282307
# 304186
#
# Disc length: 4346 seconds
#
#
# Revision: 0
# Processed by: cddbd v1.5.1PL0 Copyright (c) Steve Scherf et al.
# Submitted via: FreeRIP 2.90 
#
DISCID=ce10f80f
DTITLE=Elcio - Zouk 20
DYEAR=2005
DGENRE=Zouk
TTITLE0=Besoin de Toi
TTITLE1=Flamme
TTITLE2=Martinique Zouk Love - Sincerite
TTITLE3=Tudo Pa Bo
TTITLE4=Deux Coeurs Egarés
TTITLE5=Trahison
TTITLE6=A Quoi Tu Pensé
TTITLE7=Will Zouk Love
TTITLE8=Fantasy
TTITLE9=Indecisao
TTITLE10=Pouki Lanmou
TTITLE11=Bon Moment
TTITLE12=Je T'aime
TTITLE13=Sensuelle
TTITLE14=You and Me
EXTD=
EXTT0=Christian Nara
EXTT1=A Shine
EXTT2=Section Zouk
EXTT3=Suzanna
EXTT4=Soumia
EXTT5=Soumia
EXTT6=Soumia
EXTT7=Skaarlaa
EXTT8=Nichol's and Talina
EXTT9=Denis Graça
EXTT10=Ayenn
EXTT11=Sonia Dersion
EXTT12=Talina and Soumia
EXTT13=Ludo
EXTT14=Zouk Tanya St Val
PLAYORDER=
